<svg xmlns="http://www.w3.org/2000/svg" xmlns:xlink="http://www.w3.org/1999/xlink" viewBox="0 0 3710 3710"><defs><style>.cls-1,.cls-10,.cls-16,.cls-33,.cls-34,.cls-4,.cls-6{fill:#fff;}.cls-2{opacity:0.9;}.cls-3{fill:#91b3fa;}.cls-4{opacity:0.45;}.cls-5{fill:#bdd0fb;}.cls-6{opacity:0.43;}.cls-7{fill:url(#linear-gradient);}.cls-8{opacity:0.5;}.cls-9{fill:url(#linear-gradient-2);}.cls-10{opacity:0.2;}.cls-11{fill:url(#linear-gradient-3);}.cls-12{fill:#7d97f4;}.cls-13{fill:url(#linear-gradient-4);}.cls-14{fill:url(#linear-gradient-5);}.cls-15{fill:url(#linear-gradient-6);}.cls-16{opacity:0.78;}.cls-17{fill:url(#linear-gradient-7);}.cls-18{fill:url(#linear-gradient-8);}.cls-19{fill:url(#linear-gradient-9);}.cls-20{fill:url(#linear-gradient-10);}.cls-21{fill:url(#linear-gradient-11);}.cls-22{fill:url(#linear-gradient-12);}.cls-23{fill:url(#linear-gradient-13);}.cls-24{fill:url(#linear-gradient-14);}.cls-25{fill:url(#linear-gradient-15);}.cls-26{fill:url(#linear-gradient-16);}.cls-27{fill:url(#linear-gradient-17);}.cls-28{fill:url(#linear-gradient-18);}.cls-29{fill:url(#linear-gradient-19);}.cls-30{fill:url(#linear-gradient-20);}.cls-31{fill:url(#linear-gradient-21);}.cls-32{fill:url(#linear-gradient-22);}.cls-33{opacity:0.8;}.cls-34,.cls-35{opacity:0.47;}.cls-36{fill:url(#linear-gradient-23);}.cls-37{fill:url(#linear-gradient-24);}.cls-38{fill:url(#linear-gradient-25);}.cls-39{fill:url(#linear-gradient-26);}.cls-40{fill:url(#linear-gradient-27);}.cls-41{fill:url(#linear-gradient-28);}.cls-42{fill:url(#linear-gradient-29);}.cls-43{fill:url(#linear-gradient-30);}.cls-44{fill:url(#linear-gradient-31);}.cls-45{fill:url(#linear-gradient-32);}.cls-46{fill:url(#linear-gradient-33);}.cls-47{fill:url(#linear-gradient-34);}.cls-48{fill:url(#linear-gradient-35);}.cls-49{fill:url(#linear-gradient-36);}.cls-50{fill:url(#linear-gradient-37);}.cls-51{fill:url(#linear-gradient-38);}</style><linearGradient id="linear-gradient" x1="2104.17" y1="266.37" x2="1964.98" y2="1182.1" gradientUnits="userSpaceOnUse"><stop offset="0" stop-color="#09005d"/><stop offset="1" stop-color="#1a0f91"/></linearGradient><linearGradient id="linear-gradient-2" x1="1274.85" y1="3270" x2="2620.76" y2="1273.27" xlink:href="#linear-gradient"/><linearGradient id="linear-gradient-3" x1="4754.98" y1="3648.07" x2="5840.64" y2="2602.86" gradientTransform="matrix(-1, 0, 0, 1, 7226.81, 0)" gradientUnits="userSpaceOnUse"><stop offset="0" stop-color="#ff928e"/><stop offset="1" stop-color="#fe7062"/></linearGradient><linearGradient id="linear-gradient-4" x1="4824.28" y1="3231.32" x2="5909.95" y2="2186.11" xlink:href="#linear-gradient-3"/><linearGradient id="linear-gradient-5" x1="446.5" y1="1026.22" x2="584.12" y2="866.48" gradientTransform="translate(1115.67 -36.78) rotate(64.64)" gradientUnits="userSpaceOnUse"><stop offset="0" stop-color="#e1473d"/><stop offset="1" stop-color="#e9605a"/></linearGradient><linearGradient id="linear-gradient-6" x1="661.88" y1="749.98" x2="254.94" y2="1364.74" gradientTransform="translate(782.31 -162.16) rotate(45)" xlink:href="#linear-gradient-3"/><linearGradient id="linear-gradient-7" x1="649.74" y1="767.59" x2="433.05" y2="1131.37" gradientTransform="matrix(1, 0, 0, 1, 0, 0)" xlink:href="#linear-gradient-3"/><linearGradient id="linear-gradient-8" x1="634.54" y1="1025.27" x2="874.11" y2="747.2" gradientTransform="translate(781.82 -404.3) rotate(45)" xlink:href="#linear-gradient-5"/><linearGradient id="linear-gradient-9" x1="1009.48" y1="544.39" x2="301.07" y2="1614.59" gradientTransform="translate(781.82 -404.3) rotate(45)" xlink:href="#linear-gradient-3"/><linearGradient id="linear-gradient-10" x1="988.34" y1="575.05" x2="611.13" y2="1208.33" gradientTransform="matrix(1, 0, 0, 1, 0, 0)" xlink:href="#linear-gradient-3"/><linearGradient id="linear-gradient-11" x1="750.63" y1="1432.42" x2="997.14" y2="1146.29" gradientTransform="translate(1099.98 -374.56) rotate(45)" xlink:href="#linear-gradient-5"/><linearGradient id="linear-gradient-12" x1="1136.44" y1="937.6" x2="407.5" y2="2038.82" gradientTransform="translate(1099.98 -374.56) rotate(45)" xlink:href="#linear-gradient-3"/><linearGradient id="linear-gradient-13" x1="1114.69" y1="969.15" x2="726.55" y2="1620.79" gradientTransform="matrix(1, 0, 0, 1, 0, 0)" xlink:href="#linear-gradient-3"/><linearGradient id="linear-gradient-14" x1="1053.63" y1="1104.04" x2="1234.24" y2="894.4" gradientTransform="matrix(1, 0, 0, 1, 0, 0)" xlink:href="#linear-gradient-5"/><linearGradient id="linear-gradient-15" x1="1336.3" y1="741.49" x2="802.21" y2="1548.35" gradientTransform="translate(992.01 -614.6) rotate(45)" xlink:href="#linear-gradient-3"/><linearGradient id="linear-gradient-16" x1="1320.37" y1="764.61" x2="1035.98" y2="1242.06" gradientTransform="matrix(1, 0, 0, 1, 0, 0)" xlink:href="#linear-gradient-3"/><linearGradient id="linear-gradient-17" x1="-2310.49" y1="893.04" x2="-2406.86" y2="1188.45" gradientTransform="matrix(-0.77, -0.63, -0.63, 0.77, -171.39, -47.87)" gradientUnits="userSpaceOnUse"><stop offset="0" stop-color="#febbba"/><stop offset="1" stop-color="#ff928e"/></linearGradient><linearGradient id="linear-gradient-18" x1="2274.17" y1="2292.56" x2="-1660.27" y2="2925.4" gradientTransform="translate(-414.64 65.99) rotate(-4.49)" xlink:href="#linear-gradient-3"/><linearGradient id="linear-gradient-19" x1="2280.4" y1="2331.31" x2="-1654.04" y2="2964.14" gradientTransform="translate(-414.64 65.99) rotate(-4.49)" xlink:href="#linear-gradient-3"/><linearGradient id="linear-gradient-20" x1="2087.37" y1="832.49" x2="1374.32" y2="1820.36" gradientUnits="userSpaceOnUse"><stop offset="0" stop-color="#4f52ff"/><stop offset="1" stop-color="#4042e2"/></linearGradient><linearGradient id="linear-gradient-21" x1="1373.77" y1="1826.88" x2="1930.84" y2="1152.25" xlink:href="#linear-gradient-20"/><linearGradient id="linear-gradient-22" x1="1136.8" y1="1491.57" x2="850.58" y2="2350.23" gradientTransform="translate(64.75 -35.14) rotate(2.02)" xlink:href="#linear-gradient-3"/><linearGradient id="linear-gradient-23" x1="2126.53" y1="1601.12" x2="2493" y2="1138.41" gradientTransform="translate(-1033.48 253.72) rotate(-12.55)" xlink:href="#linear-gradient-3"/><linearGradient id="linear-gradient-24" x1="1992.59" y1="1495.04" x2="2359.06" y2="1032.33" gradientTransform="translate(-1033.48 253.72) rotate(-12.55)" xlink:href="#linear-gradient-3"/><linearGradient id="linear-gradient-25" x1="-1847.57" y1="3033.61" x2="-1670.01" y2="3033.61" gradientTransform="matrix(-1, 0, 0, 1, -956.02, 0)" xlink:href="#linear-gradient-17"/><linearGradient id="linear-gradient-26" x1="698.9" y1="3201.52" x2="771.98" y2="3201.52" xlink:href="#linear-gradient-20"/><linearGradient id="linear-gradient-27" x1="881.04" y1="3234.45" x2="983.34" y2="3234.45" xlink:href="#linear-gradient-20"/><linearGradient id="linear-gradient-28" x1="-1955.31" y1="3046.82" x2="-1852.49" y2="3046.82" gradientTransform="matrix(-1, 0, 0, 1, -956.02, 0)" xlink:href="#linear-gradient-17"/><linearGradient id="linear-gradient-29" x1="-2176.81" y1="2275.39" x2="-1975.52" y2="2275.39" gradientTransform="matrix(-1, 0, 0, 1, -956.02, 0)" xlink:href="#linear-gradient-17"/><linearGradient id="linear-gradient-30" x1="-2269.29" y1="1764.76" x2="-1891.91" y2="2512.19" gradientTransform="matrix(-1, 0, 0, 1, -956.02, 0)" xlink:href="#linear-gradient-3"/><linearGradient id="linear-gradient-31" x1="824.46" y1="2747.79" x2="1014.34" y2="2747.79" xlink:href="#linear-gradient-20"/><linearGradient id="linear-gradient-32" x1="-1924.14" y1="2374.21" x2="-1861.22" y2="2374.21" gradientTransform="matrix(-1, 0, 0, 1, -956.02, 0)" xlink:href="#linear-gradient-17"/><linearGradient id="linear-gradient-33" x1="-1824.14" y1="2292.9" x2="-1366.16" y2="2324.04" gradientTransform="matrix(-1, 0, 0, 1, -956.02, 0)" xlink:href="#linear-gradient-17"/><linearGradient id="linear-gradient-34" x1="-1748.86" y1="2265.29" x2="-1910.07" y2="2587.71" gradientTransform="matrix(-1, 0, 0, 1, -956.02, 0)" xlink:href="#linear-gradient"/><linearGradient id="linear-gradient-35" x1="-1112.72" y1="2528.1" x2="-870.22" y2="2528.1" gradientTransform="matrix(-1, 0, 0, 1, 1563.63, 0)" gradientUnits="userSpaceOnUse"><stop offset="0" stop-color="#2b3582"/><stop offset="1" stop-color="#150e42"/></linearGradient><linearGradient id="linear-gradient-36" x1="-1193.11" y1="2748.28" x2="-631.7" y2="3621.59" gradientTransform="matrix(-1, 0, 0, 1, 1563.63, 0)" xlink:href="#linear-gradient-3"/><linearGradient id="linear-gradient-37" x1="-1585.17" y1="1914.84" x2="-446.63" y2="3373.11" gradientTransform="matrix(-1, 0, 0, 1, 1563.63, 0)" xlink:href="#linear-gradient-3"/><linearGradient id="linear-gradient-38" x1="-1181.67" y1="2526.78" x2="-939.17" y2="2526.78" xlink:href="#linear-gradient-35"/></defs><g id="Background"><rect class="cls-1" width="3710" height="3710"/></g><g id="Illustration"><path class="cls-1" d="M3094.71,2340.11c-268.2,631.5-982.61,985.26-1602.15,889.84-100.81-15.53-377.19-61.79-621.88-280-471-420.09-571.79-1251.9-191.81-1838.11,276.56-426.65,772.33-668.5,1243.4-656.41,101.47,2.61,490.34,18.67,832.09,300.47,50.2,41.39,160.91,139.75,260.69,295.78C3249.35,1418.09,3269.49,1928.56,3094.71,2340.11Z"/><g class="cls-2"><path class="cls-3" d="M2949.33,746.32c59,260,353.64,1776.46-733.41,2049.66,0,0-399.25-995.15,702.91-2066.92C2928.47,719.68,2945.47,729.34,2949.33,746.32Z"/><path class="cls-4" d="M2895.35,969.64c-10.68,74.86-22.74,149.59-35.37,224.19s-26.09,149.06-40.29,223.38q-42.49,223-95.29,443.75-26.85,110.24-56.88,219.63c-20.39,72.81-42.06,145.25-65.51,217.1-23.75,71.73-49.44,142.82-78.1,212.64s-79.95,131.9-117.86,196.88c-2.06,3.52,18.67,14.55,22.18,16.61a7.38,7.38,0,0,0,10.09-2.63l0-.05c38.11-66,69.62-135.35,98.23-205.62s53.95-141.84,77.44-213.92c23.18-72.18,44.56-144.89,64.66-217.94q29.76-109.68,55.94-220.26,52.16-221.16,93.3-444.64,20.79-111.66,39.28-223.73c12.29-74.72,24-149.5,34.35-224.55a3.12,3.12,0,1,0-6.18-.85Z"/></g><path class="cls-5" d="M3263.72,1559.62c.18-15-16.47-20.78-22.43-7.77-57.67,125.77-217.54,449.63-395.38,593.08-289.56,233.59-568.44,679.49-469.53,980.51C2376.38,3125.44,3244.2,3194.3,3263.72,1559.62Z"/><path class="cls-6" d="M3199.75,1744.75c-1,3.06-2.37,7-3.62,10.52l-4,10.87L3184,1787.8l-16.68,43.14q-17,43-34.74,85.48-35.34,85.1-73.2,168.54c-50.83,111-104,220.38-162,325.86-29.21,52.56-58.56,105-89.75,155.87s-63.35,100.75-97.12,149.06c-67.22,96.89-140.63,187.65-222.07,267.46a3.57,3.57,0,0,0-.37,4.4,2.35,2.35,0,0,0,3.59.61c42.42-37.73,82.38-79.36,120.77-122.94,38.1-44,74-90.66,108.79-138.42,68.67-96.54,131.53-199,189.34-305.37,29-53.13,56.48-107.42,83.32-162.16s52.62-110.27,77-166.66,48.33-113.11,70.8-170.7q16.76-43.24,32.79-86.91c5.28-14.59,10.57-29.17,15.66-43.87l7.5-22.12,3.65-11.13c1.18-3.82,2.38-7.24,3.54-11.72a3.34,3.34,0,0,0-1.7-3.93,2.43,2.43,0,0,0-3.17,1.78Z"/><g class="cls-2"><path class="cls-3" d="M663.39,991.1C589.52,1216.4,213.13,2545,1396.46,3122.18c0,0,473-810.9-699-2138.16A20.07,20.07,0,0,0,663.39,991.1Z"/><path class="cls-4" d="M696,1251.46c15.62,74.17,32.75,147.92,50.52,221.56s36.46,147,56,220.22c39,146.38,81.32,291.92,128.08,436.07s98,287,156.77,426.79q43.79,105,95.28,206.69c34.45,67.65,71.63,134.08,114,197.38a8.15,8.15,0,1,0,13.55-9.07l0,0,0,0c-42.22-62.34-79.48-128.08-114.06-195.14s-66.46-135.65-95.9-205.25c-59.34-139-111.07-281.33-158.59-425s-90.43-288.83-130.17-434.86q-29.8-109.53-57.06-219.74c-18.13-73.47-35.64-147.13-51.61-221v0a3.45,3.45,0,0,0-6.75,1.44Z"/></g><rect class="cls-7" x="1502.24" y="708.29" width="916.87" height="1004.23" rx="54.22"/><rect class="cls-3" x="1646.67" y="455" width="623.86" height="812.21" rx="7.19"/><path class="cls-5" d="M1694.52,490.94h524.65a24.51,24.51,0,0,1,24.51,24.51v763.2a24.5,24.5,0,0,1-24.5,24.5H1694.52a24.5,24.5,0,0,1-24.5-24.5V515.45A24.5,24.5,0,0,1,1694.52,490.94Z"/><g class="cls-8"><rect class="cls-1" x="1709.36" y="552.66" width="345.03" height="20.77" rx="2.8"/><rect class="cls-1" x="1711.75" y="608.56" width="345.03" height="20.77" rx="2.8"/><rect class="cls-1" x="1710.56" y="667.56" width="345.03" height="20.77" rx="2.8"/><rect class="cls-1" x="1716.28" y="1034.15" width="345.03" height="20.77" rx="2.8"/><rect class="cls-1" x="1716.28" y="1107.71" width="345.03" height="20.77" rx="2.8"/><rect class="cls-1" x="1712.95" y="723.47" width="345.03" height="20.77" rx="2.8"/><rect class="cls-1" x="1709.36" y="786.56" width="486.39" height="20.77" rx="2.8"/><rect class="cls-1" x="1711.75" y="844.87" width="345.03" height="20.77" rx="2.8"/><rect class="cls-1" x="1710.56" y="911.96" width="345.03" height="20.77" rx="2.8"/><rect class="cls-1" x="2074.09" y="847.53" width="128.85" height="20.77" rx="2.8"/><rect class="cls-1" x="1716.28" y="969.36" width="153.61" height="20.77" rx="2.8"/></g><path class="cls-9" d="M2680.9,1291.29c7.63,313.94,32.35,1396.84,20.55,1780.59-1.25,40.66-33.17,73.29-73,74.62-196.94,6.58-918.9,23.25-1241,9.46-67.1-2.88-120.45-58.36-121.84-126.91-6.7-329.52-21.47-1256.34,13.64-1680.92,4.2-50.87,43.31-91.38,93.06-96.46,214.48-21.91,939.54-75.45,1217.84-57C2640.33,1198,2679.66,1240,2680.9,1291.29Z"/><path class="cls-3" d="M2554,1429.71v266c0,51-32.37,92.38-72.29,92.38h-994.8c-39.92,0-72.29-41.36-72.29-92.38v-266c0-51,32.37-92.38,72.29-92.38h994.8C2521.66,1337.33,2554,1378.69,2554,1429.71Z"/><path class="cls-10" d="M1467.48,1421.24c9-11.5,21.09-18,33.74-18.09l931-6.18c24.89-.17,45.56,24.17,47.45,55.86L2495.41,1717c1.29,21.62-26.77,39.43-62.24,39.5l-915.26,1.67c-35.41.06-64.45-17.59-64.45-39.19l0-254.49C1453.49,1448.28,1458.52,1432.73,1467.48,1421.24Z"/><path class="cls-11" d="M1486.8,2827.38a82.41,82.41,0,0,0,82.41,82.42h100.33a82.41,82.41,0,0,0,82.41-82.42h0a82.41,82.41,0,0,0-82.41-82.41H1569.21a82.41,82.41,0,0,0-82.41,82.41Z"/><path class="cls-12" d="M2208.69,2827.38a82.42,82.42,0,0,0,82.42,82.42h100.33a82.42,82.42,0,0,0,82.41-82.42h0a82.41,82.41,0,0,0-82.41-82.41H2291.11a82.42,82.42,0,0,0-82.42,82.41Z"/><path class="cls-13" d="M1850.37,2827.38a82.42,82.42,0,0,0,82.41,82.42h100.33a82.42,82.42,0,0,0,82.42-82.42h0a82.42,82.42,0,0,0-82.42-82.41H1932.78a82.41,82.41,0,0,0-82.41,82.41Z"/><rect class="cls-12" x="2315.55" y="2015.83" width="165.33" height="129.39" rx="59.55"/><rect class="cls-12" x="2315.55" y="2236.26" width="165.33" height="129.39" rx="59.55"/><rect class="cls-12" x="2315.55" y="2456.7" width="165.33" height="129.39" rx="59.55"/><rect class="cls-12" x="2047.2" y="2015.83" width="165.33" height="129.39" rx="59.55"/><rect class="cls-12" x="2047.2" y="2236.26" width="165.33" height="129.39" rx="59.55"/><rect class="cls-12" x="2044.8" y="2456.7" width="165.33" height="129.39" rx="59.55"/><rect class="cls-12" x="1776.45" y="2015.83" width="165.33" height="129.39" rx="59.55"/><rect class="cls-12" x="1776.45" y="2236.26" width="165.33" height="129.39" rx="59.55"/><rect class="cls-12" x="1776.45" y="2456.7" width="165.33" height="129.39" rx="59.55"/><rect class="cls-12" x="1481.34" y="2015.83" width="165.33" height="129.39" rx="59.55"/><rect class="cls-12" x="1481.34" y="2236.26" width="165.33" height="129.39" rx="59.55"/><rect class="cls-12" x="1481.34" y="2456.7" width="165.33" height="129.39" rx="59.55"/><rect class="cls-12" x="1452.98" y="1900.82" width="179.7" height="52.71" rx="24.26"/><rect class="cls-12" x="1752.49" y="1900.82" width="179.7" height="52.71" rx="24.26"/><rect class="cls-12" x="2028.03" y="1900.82" width="179.7" height="52.71" rx="24.26"/><rect class="cls-12" x="2327.53" y="1900.82" width="179.7" height="52.71" rx="24.26"/><circle class="cls-14" cx="586.9" cy="863.26" r="102.6" transform="translate(-444.53 1023.94) rotate(-64.64)"/><circle class="cls-15" cx="586.9" cy="863.26" r="99.19" transform="translate(-438.52 667.84) rotate(-45)"/><path class="cls-1" d="M505.1,825.91a3.86,3.86,0,0,1-3.43-5.59A95.55,95.55,0,0,1,604.1,769.39a3.85,3.85,0,1,1-1.38,7.58,88.76,88.76,0,0,0-15.83-1.42,87.32,87.32,0,0,0-78.34,48.24A3.87,3.87,0,0,1,505.1,825.91Z"/><circle class="cls-16" cx="589.06" cy="865.42" r="83.95" transform="translate(-439.41 670) rotate(-45)"/><path class="cls-17" d="M580.82,927.83v-9.14a74.67,74.67,0,0,1-25.63-5.55,5.29,5.29,0,0,1-2.92-6.24l2.32-8.51a5.33,5.33,0,0,1,7.23-3.49,61.89,61.89,0,0,0,23.66,5c9.17,0,16-3.11,16-9.49,0-5.75-5.28-9.17-18-12.59-18.18-5-31.24-12.9-31.24-28.91,0-14.45,10.57-25.49,28.91-28.44v-9.14a5.32,5.32,0,0,1,5.32-5.32h5.37a5.32,5.32,0,0,1,5.32,5.32v8.21a67.79,67.79,0,0,1,20.31,3.64,5.31,5.31,0,0,1,3.31,6.4l-2.13,7.86a5.31,5.31,0,0,1-7,3.59,55.41,55.41,0,0,0-19.92-3.62c-10.88,0-14,4.51-14,8.55,0,5,6.53,8.39,20.67,12.75,20.21,6.06,28.6,14.45,28.6,29.53,0,13.83-10.26,26.27-30.15,29.37v10.23a5.32,5.32,0,0,1-5.32,5.32h-5.37A5.32,5.32,0,0,1,580.82,927.83Z"/><circle class="cls-18" cx="878.94" cy="741.59" r="178.61" transform="translate(-266.94 838.71) rotate(-45)"/><circle class="cls-19" cx="878.94" cy="741.59" r="172.67" transform="translate(-266.94 838.71) rotate(-45)"/><path class="cls-1" d="M736.56,673.71a3.85,3.85,0,0,1-3.43-5.59,162.54,162.54,0,0,1,145.81-89.78A164.58,164.58,0,0,1,908.39,581a3.85,3.85,0,1,1-1.38,7.58,157.55,157.55,0,0,0-28.07-2.52A154.9,154.9,0,0,0,740,671.6,3.84,3.84,0,0,1,736.56,673.71Z"/><circle class="cls-16" cx="882.71" cy="745.35" r="146.14" transform="translate(-268.5 842.48) rotate(-45)"/><path class="cls-20" d="M868.37,854v-15.9c-16.58-.66-33-4.57-44.62-9.67a9.2,9.2,0,0,1-5.08-10.87l4-14.81a9.26,9.26,0,0,1,12.58-6.06,107.68,107.68,0,0,0,41.19,8.67c16,0,27.87-5.41,27.87-16.51,0-10-9.2-16-31.38-21.91-31.66-8.66-54.39-22.46-54.39-50.33,0-25.17,18.4-44.38,50.33-49.52v-15.9a9.26,9.26,0,0,1,9.26-9.26h9.34a9.27,9.27,0,0,1,9.27,9.26v14.28c15.33.61,26.5,3.24,35.36,6.35a9.21,9.21,0,0,1,5.76,11.13l-3.72,13.69A9.22,9.22,0,0,1,922,702.87a96.59,96.59,0,0,0-34.68-6.29c-18.94,0-24.36,7.84-24.36,14.88,0,8.66,11.37,14.61,36,22.19,35.18,10.55,49.79,25.16,49.79,51.41,0,24.08-17.86,45.73-52.49,51.14V854a9.27,9.27,0,0,1-9.27,9.27h-9.34A9.26,9.26,0,0,1,868.37,854Z"/><circle class="cls-21" cx="1002.12" cy="1140.51" r="183.78" transform="translate(-512.95 1042.66) rotate(-45)"/><circle class="cls-22" cx="1002.12" cy="1140.51" r="177.67" transform="translate(-512.95 1042.66) rotate(-45)"/><path class="cls-1" d="M855.61,1070.56a3.85,3.85,0,0,1-3.43-5.59,167.16,167.16,0,0,1,149.94-92.32,170,170,0,0,1,30.28,2.72A3.85,3.85,0,1,1,1031,983a162,162,0,0,0-28.9-2.6,159.51,159.51,0,0,0-143.07,88.09A3.83,3.83,0,0,1,855.61,1070.56Z"/><circle class="cls-16" cx="1005.99" cy="1144.38" r="150.38" transform="translate(-514.55 1046.53) rotate(-45)"/><path class="cls-23" d="M991.24,1256.18v-16.36c-17.06-.69-33.93-4.71-45.91-10a9.46,9.46,0,0,1-5.23-11.18l4.16-15.24a9.54,9.54,0,0,1,13-6.24,110.6,110.6,0,0,0,42.38,8.93c16.43,0,28.68-5.57,28.68-17,0-10.3-9.47-16.42-32.3-22.55-32.57-8.91-56-23.11-56-51.79,0-25.89,18.93-45.66,51.78-51v-16.36a9.53,9.53,0,0,1,9.54-9.53h9.61a9.53,9.53,0,0,1,9.53,9.53v14.69c15.78.63,27.27,3.33,36.39,6.53a9.5,9.5,0,0,1,5.93,11.45l-3.83,14.1a9.51,9.51,0,0,1-12.55,6.42,99.09,99.09,0,0,0-35.68-6.48c-19.49,0-25.06,8.07-25.06,15.31,0,8.91,11.69,15,37,22.83,36.2,10.86,51.23,25.9,51.23,52.9,0,24.78-18.38,47.06-54,52.63v18.31a9.54,9.54,0,0,1-9.54,9.53h-9.61A9.53,9.53,0,0,1,991.24,1256.18Z"/><circle class="cls-24" cx="1237.89" cy="890.16" r="134.66"/><circle class="cls-25" cx="1237.89" cy="890.16" r="130.18" transform="translate(-266.87 1136.04) rotate(-45)"/><path class="cls-1" d="M1130.55,839.94a3.85,3.85,0,0,1-3.44-5.59,123.51,123.51,0,0,1,110.78-68.21,125.69,125.69,0,0,1,22.38,2,3.85,3.85,0,0,1-1.39,7.58,117.54,117.54,0,0,0-21-1.88,115.83,115.83,0,0,0-103.9,64A3.85,3.85,0,0,1,1130.55,839.94Z"/><circle class="cls-16" cx="1240.73" cy="893" r="110.18" transform="translate(-171.98 308.95) rotate(-13.28)"/><path class="cls-26" d="M1229.92,974.91v-12c-12.5-.5-24.86-3.45-33.64-7.29a6.94,6.94,0,0,1-3.83-8.19l3-11.17a7,7,0,0,1,9.49-4.57,81.18,81.18,0,0,0,31.06,6.54c12,0,21-4.08,21-12.45,0-7.54-6.94-12-23.67-16.52-23.86-6.53-41-16.93-41-37.94,0-19,13.87-33.46,37.95-37.34V822a7,7,0,0,1,7-7h7a7,7,0,0,1,7,7v10.76a89,89,0,0,1,26.66,4.79,7,7,0,0,1,4.34,8.39l-2.8,10.32a7,7,0,0,1-9.2,4.71,72.59,72.59,0,0,0-26.14-4.75c-14.28,0-18.36,5.92-18.36,11.22,0,6.53,8.57,11,27.13,16.73,26.52,8,37.54,19,37.54,38.76,0,18.15-13.47,34.47-39.58,38.55v13.42a7,7,0,0,1-7,7h-7A7,7,0,0,1,1229.92,974.91Z"/><path class="cls-27" d="M1085.12,2217.33s-4.38,190.4-204.58,223.79l-35.94-35.48s173.36-58.94,218.49-182.12l-9.64-65.33,6.79-43.23Z"/><path class="cls-28" d="M1747,2297.44c-186.65,126.48-350.31,132.36-542.36,49.91a34.78,34.78,0,0,1-21.09-30.87l-.24-7.83a34.72,34.72,0,0,1,45.24-34.15c165.28,52.68,288.54,79,481.31-35.7a34.71,34.71,0,0,1,52,24.84h0A34.76,34.76,0,0,1,1747,2297.44Z"/><path class="cls-29" d="M1717.07,2390.41l95.85-161.34a7.56,7.56,0,0,0-6.17-11.41l-180.37-7.83a8.77,8.77,0,0,0-8.18,12.75c45.26,53.41,72.78,109.36,85.68,167.41A7.54,7.54,0,0,0,1717.07,2390.41Z"/><path class="cls-30" d="M1884.28,1527.38l5.82,499.06.9,77.27a18.41,18.41,0,0,1-17.7,19l-991.47,35a18.43,18.43,0,0,1-19-17.68L859,2062.84l-24.52-492.31c-.35-10.08,10.83-30.16,32.63-29.45l968.09-59.29a46.26,46.26,0,0,1,49.08,45.59Z"/><path class="cls-31" d="M1866.21,2089a17.35,17.35,0,0,1-16.87,17.71L904.86,2140a17.34,17.34,0,0,1-18.07-16.48l-26.63-531.44c-.33-9.4,10.33-28.15,31.1-27.5l922.23-56a44.59,44.59,0,0,1,32.68,11.44,42.67,42.67,0,0,1,14,31.07Z"/><path class="cls-5" d="M1743.13,2116a3.15,3.15,0,0,1-.11-6.29l105.73-3.73c12.69-.45,24.7-13.41,24.25-26.17l-11.41-323.38a3.14,3.14,0,0,1,3-3.26,3.2,3.2,0,0,1,3.26,3l11.41,323.38c.58,16.22-14.16,32.1-30.31,32.67L1743.24,2116Z"/><path class="cls-5" d="M868,1794.66a3.15,3.15,0,0,1-3.14-3L858,1597.78a41.94,41.94,0,0,1,9.43-27.72c6.7-8.18,15.79-12.87,25.59-13.22l84-3a3.19,3.19,0,0,1,3.25,3,3.13,3.13,0,0,1-3,3.25l-84,3c-8,.28-15.4,4.16-20.94,10.92a35.58,35.58,0,0,0-8,23.51l6.84,193.84a3.15,3.15,0,0,1-3,3.25Z"/><rect class="cls-32" x="948.6" y="1752.34" width="159.25" height="129.91" rx="18.35" transform="translate(-63.47 37.41) rotate(-2.02)"/><path class="cls-33" d="M1005.09,1844.32a8.74,8.74,0,0,1-8.72-8.41l-1.08-30.74a8.73,8.73,0,0,1,8.41-9l34.93-1.24a8.73,8.73,0,0,1,9,8.41h0l1.08,30.74a8.71,8.71,0,0,1-8.4,9l-34.93,1.24Zm33.85-43.12h-.09l-34.93,1.23a2.43,2.43,0,0,0-2.34,2.52l1.08,30.74a2.46,2.46,0,0,0,.78,1.69,2.49,2.49,0,0,0,1.74.65l34.92-1.23a2.46,2.46,0,0,0,1.7-.78,2.41,2.41,0,0,0,.64-1.74l-1.08-30.73a2.42,2.42,0,0,0-2.42-2.35Z"/><path class="cls-1" d="M948.42,1817a3.15,3.15,0,0,1-.1-6.29l50.25-1.77a3.22,3.22,0,0,1,3.26,3,3.15,3.15,0,0,1-3,3.26L948.53,1817Z"/><path class="cls-1" d="M948.86,1829.54a3.15,3.15,0,0,1-.1-6.29l50.26-1.78a3.2,3.2,0,0,1,3.25,3,3.15,3.15,0,0,1-3,3.25L949,1829.53Z"/><path class="cls-1" d="M1053.13,1813.28a3.15,3.15,0,0,1-.11-6.29l54.44-1.93a3.15,3.15,0,1,1,.22,6.29l-54.44,1.93Z"/><path class="cls-1" d="M1053.57,1825.84a3.15,3.15,0,0,1-.11-6.29l54.45-1.92a3.23,3.23,0,0,1,3.25,3,3.15,3.15,0,0,1-3,3.26l-54.45,1.92Z"/><path class="cls-1" d="M1009.68,1802.43a3.15,3.15,0,0,1-3-2.32l-12.41-45.2a3.15,3.15,0,0,1,6.07-1.66l12.41,45.2a3.15,3.15,0,0,1-2.21,3.87A3.38,3.38,0,0,1,1009.68,1802.43Z"/><path class="cls-1" d="M1038.87,1801.4a3.69,3.69,0,0,1-.65-.07,3.14,3.14,0,0,1-2.43-3.72l9.58-46a3.15,3.15,0,1,1,6.16,1.29l-9.58,46A3.15,3.15,0,0,1,1038.87,1801.4Z"/><path class="cls-1" d="M1001.89,1888a2.54,2.54,0,0,1-.61-.07,3.13,3.13,0,0,1-2.47-3.7l9.18-46a3.15,3.15,0,0,1,6.17,1.23l-9.18,46A3.15,3.15,0,0,1,1001.89,1888Z"/><path class="cls-1" d="M1053.07,1886.16a3.15,3.15,0,0,1-3-2.29l-12.8-45.18a3.14,3.14,0,1,1,6-1.72l12.8,45.18a3.15,3.15,0,0,1-3,4Z"/><path class="cls-34" d="M1101.33,1631.47a21.79,21.79,0,0,1-21,22.55l-136.52,4.82a21.82,21.82,0,0,1-22.56-21l-.08-2.5a21.79,21.79,0,0,1,21-22.55l136.52-4.82a21.79,21.79,0,0,1,22.55,21Z"/><g class="cls-35"><rect class="cls-1" x="932.75" y="1940.98" width="192.77" height="41.91" rx="20.8" transform="matrix(1, -0.04, 0.04, 1, -68.58, 37.53)"/><path class="cls-1" d="M1343.25,1951a20.8,20.8,0,0,1-20,21.51l-151.09,5.34a20.81,20.81,0,0,1-21.52-20v-.32a20.79,20.79,0,0,1,20.05-21.51l151.09-5.34a20.8,20.8,0,0,1,21.52,20Z"/><path class="cls-1" d="M1561,1943.32a20.79,20.79,0,0,1-20,21.51l-151.09,5.34a20.8,20.8,0,0,1-21.52-20.05v-.32a20.8,20.8,0,0,1,20.05-21.51L1539.5,1923a20.8,20.8,0,0,1,21.52,20Z"/><rect class="cls-1" x="1590.28" y="1917.77" width="192.77" height="41.91" rx="20.8" transform="translate(-67.35 60.71) rotate(-2.02)"/></g><g class="cls-35"><path class="cls-1" d="M1271.12,2045.88a16.54,16.54,0,0,1-15.95,17.1l-281.05,9.93A16.54,16.54,0,0,1,957,2057l0-.45a16.54,16.54,0,0,1,15.94-17.11l281.06-9.92a16.53,16.53,0,0,1,17.11,15.94Z"/><path class="cls-1" d="M1622.35,2005.95h122a16.53,16.53,0,0,1,16.53,16.53v.46a16.53,16.53,0,0,1-16.53,16.53h-122a16.53,16.53,0,0,1-16.53-16.53v-.46A16.54,16.54,0,0,1,1622.35,2005.95Z" transform="translate(-70.31 60.65) rotate(-2.02)"/></g><path class="cls-36" d="M1068.06,1483c166.1-161.83,330.74-197.41,540.12-148.69a35.78,35.78,0,0,1,26.94,27.44l1.66,7.89a35.7,35.7,0,0,1-39.62,42.76c-176.89-23.43-306.46-27.78-480.89,123.26a35.7,35.7,0,0,1-57.19-15.74h0A35.76,35.76,0,0,1,1068.06,1483Z"/><path class="cls-37" d="M1081.56,1383.44l-67.86,180.7a7.77,7.77,0,0,0,8.32,10.43l184-24.71a9,9,0,0,0,6-14.39c-55.49-45.89-93.48-97.56-117-154A7.75,7.75,0,0,0,1081.56,1383.44Z"/><path class="cls-38" d="M891.55,2869.7s-95,207-144.82,292.77c0,0-9.9,54,0,70.92l8.44,3.75L715.8,3236s-3.5-72.58-.77-76.63,8.2-3.79,8.2-3.79,16.88-133.74,65.76-162.28l47.38-163.18Z"/><path class="cls-39" d="M772,3247.3c.06.95-30.74.52-47.47.21A13.29,13.29,0,0,1,711.75,3237l-12.64-66.38a11.94,11.94,0,0,1,9.07-13.87l7.05-1.61s10.06,13.8,6.89,26.8-6,46.65,2,50.57,31,4.61,31,4.61S771.45,3238.75,772,3247.3Z"/><path class="cls-40" d="M981.58,3248.5a3.48,3.48,0,0,1-1.76,6.5c-28-.28-90.73-1.17-96.31-3.49-7.19-3,2.63-28.85,13-37.61l57.07,18.63Z"/><path class="cls-41" d="M999.29,2856.5s-61.38,296.94-78.74,354.86l41.07,25.78s-20.58-3.5-35.84-4.61-29.31-18.63-29.31-18.63l4.92-7.84S916.78,2910.73,913,2877.2Z"/><path class="cls-42" d="M1151.66,2163.89s8.47,154.46-132.16,233.39l33.85,77.22s127.33-77,122.62-287.05a24.42,24.42,0,0,1,6-16.45l27.06-31.39a48.56,48.56,0,0,0,10.33-43.51l-3.56-14.23a7.39,7.39,0,0,0-10.87-4.6l-2.83,1.65a49.69,49.69,0,0,0-20.4,22.67l-13.28,29.7a28.55,28.55,0,0,1-28.52,16.79l-8.21-.71Z"/><path class="cls-43" d="M1024.39,2385.71c-23.53,6.52-103.23,27.49-153,26.63L902,2584.75l-2.43,28.12,99.61-.45s28-65.12,50.16-97.59c6.39-9.37,1.64-20.56-2-31.31l5-3.31a13.56,13.56,0,0,0,5.37-15.49l-24.26-74.22A7.39,7.39,0,0,0,1024.39,2385.71Z"/><path class="cls-44" d="M1007.11,2597.71l-2,17s28.15,84.3-14.07,281.2c0,0-91.45,25.9-166.62-36.09,0,0,21.21-185.84,27-194.5,28.84-43.12,48.06-52.49,48.06-52.49l.86-18.61S980.77,2608.79,1007.11,2597.71Z"/><path class="cls-45" d="M968.12,2399.6c.35-.46-20.8-63.84-20.8-63.84L917,2338.51l-11.83,71.9S952.67,2420,968.12,2399.6Z"/><path class="cls-46" d="M924.28,2235.81c2,1.26,64.73,27.17,51.26,92.27a12.23,12.23,0,0,1-7,8.71c-9.2,4.1-29,11.13-52.7,8.72-32.85-3.34-54.37-60.66-53.46-77.34S904.27,2223.35,924.28,2235.81Z"/><path class="cls-47" d="M905.2,2210.5c1.65.22,36.24,12.27,19.08,37.33s-23.58,39.82-15.47,50.82c7.39,10,23.76,4.31,22.34,25.17a11.71,11.71,0,0,0,5,10.58c15.43,10.44,53.07,42.59,15.78,88.43a11.68,11.68,0,0,0-1.32,13.07c10.92,19.59,33.87,77-49.2,108.82-82.08,31.46-111.72-22.19-120-43.64a11.43,11.43,0,0,0-11.32-7.24c-9,.42-21.8-1.08-21.21-13.13.35-7.32,4.92-13.88,10.32-19.14a11.44,11.44,0,0,0-2.2-18,22.4,22.4,0,0,1-11.07-13.91c-5-18.43,5-73.55,57.79-82.89,4.41-.78,9-4.91,9.66-9.34l0-.2a11.42,11.42,0,0,0-4.24-11.23c-8.43-6.19-19.25-18.64-10.46-38.62,7.79-17.72,22.74-23.7,33.84-25.61A11.5,11.5,0,0,0,842,2248C838.21,2230.38,841.48,2202.15,905.2,2210.5Z"/><path class="cls-48" d="M2442.37,2631.28H2442a8.51,8.51,0,0,1-8.18-8.84c.2-5.33,5.72-131,64-179,18.61-15.34,40.53-21.18,65.18-17.38,49.08,7.6,84.26,44.51,101.71,106.73,12.8,45.65,11.64,88.45,11.58,90.24a8.63,8.63,0,0,1-8.78,8.25,8.51,8.51,0,0,1-8.25-8.77c.05-1.64,3.74-163.73-98.87-179.61-19.9-3.07-36.83,1.39-51.74,13.68-52.42,43.21-57.73,165.29-57.78,166.52A8.52,8.52,0,0,1,2442.37,2631.28Z"/><path class="cls-49" d="M2877.18,3162.73l-85.42-579.09-320.88-5.3-103.43,616.57h481.94A28.08,28.08,0,0,0,2877.18,3162.73Z"/><path class="cls-50" d="M2408.56,2583.64l62.32-5.3-103.43,616.57h-61.87a19.77,19.77,0,0,1-19.36-23.8Z"/><path class="cls-51" d="M2511.32,2630H2511a8.51,8.51,0,0,1-8.17-8.84c.2-5.32,5.71-131,64-179,18.61-15.34,40.52-21.18,65.18-17.37,49.08,7.6,84.26,44.5,101.71,106.72,12.8,45.65,11.64,88.45,11.58,90.24a8.52,8.52,0,0,1-17-.52c.05-1.63,3.74-163.73-98.87-179.6-19.9-3.09-36.82,1.39-51.73,13.67-52.36,43.13-57.74,165.29-57.79,166.52A8.53,8.53,0,0,1,2511.32,2630Z"/></g></svg>